<svg width="99" height="99" viewBox="0 0 99 99" fill="none" xmlns="http://www.w3.org/2000/svg">
  <rect width="99" height="99" rx="49.5" fill="#26304D"/>
  <ellipse cx="67.5013" cy="49.4326" rx="11.4988" ry="11.6205" fill="white"/>
  <ellipse cx="52.4347" cy="53.4394" rx="1.18954" ry="1.20212" fill="#0C2F75"/>
  <path fill-rule="evenodd" clip-rule="evenodd" d="M49.8597 44.4838H47.1411V50.3578L43.0334 44.4173H40.5189V54.642H43.2441L43.2112 49.1072L47.3517 54.7218H49.8597V44.4838ZM26.2464 49.4596L30.1895 54.6418H26.7665L23.8306 50.5041H23.7252V54.6418H21V44.4836H23.7252V48.7146H23.7977L26.569 44.4836H29.7155L26.2464 49.4596ZM34.8767 54.8946C32.2568 54.8946 30.4531 53.1584 30.4531 50.6504V44.4836H33.1784V50.6571C33.1784 51.6882 33.8827 52.4 34.8767 52.4C35.8773 52.4 36.5816 51.6882 36.5816 50.6637V44.4836H39.3069V50.6504C39.3069 53.1584 37.5032 54.8946 34.8767 54.8946Z" fill="white"/>
  <path fill-rule="evenodd" clip-rule="evenodd" d="M58.9595 50.6504C58.9595 53.1583 60.7631 54.8946 63.3831 54.8946C66.0096 54.8946 67.8132 53.1583 67.8132 50.6504V44.4836H65.088V50.6637C65.088 51.6882 64.3836 52.4 63.3831 52.4C62.3891 52.4 61.6847 51.6882 61.6847 50.6571V44.4836H58.9595V50.6504ZM72.6128 46.9317L68.4196 54.6418H76.7862V52.1871H72.909L77.0824 44.4836H69.2095V46.9317H72.6128Z" fill="#26304D"/>
  </svg>
  