<svg width="74" height="29" viewBox="0 0 74 29" fill="none" xmlns="http://www.w3.org/2000/svg">
<ellipse cx="59.5" cy="14.5" rx="14.5" ry="14.5" fill="#093076"/>
<ellipse cx="40.5" cy="19.5" rx="1.5" ry="1.5" fill="#093076"/>
<path fill-rule="evenodd" clip-rule="evenodd" d="M37.2545 8.32471H33.8263V15.6543L28.6466 8.2417H25.4757V21H28.9122L28.8707 14.0937L34.0919 21.0996H37.2545V8.32471ZM7.479 14.5337L12.4512 21H8.13477L4.43262 15.8369H4.2998V21H0.863281V8.32471H4.2998V13.604H4.39111L7.88574 8.32471H11.8535L7.479 14.5337ZM18.3616 21.3154C15.0579 21.3154 12.7835 19.1489 12.7835 16.0195V8.32471H16.22V16.0278C16.22 17.3145 17.1082 18.2026 18.3616 18.2026C19.6233 18.2026 20.5115 17.3145 20.5115 16.0361V8.32471H23.948V16.0195C23.948 19.1489 21.6736 21.3154 18.3616 21.3154Z" fill="#093076"/>
<path fill-rule="evenodd" clip-rule="evenodd" d="M48.7305 16.0195C48.7305 19.1489 51.0049 21.3154 54.3086 21.3154C57.6206 21.3154 59.895 19.1489 59.895 16.0195V8.32471H56.4585V16.0361C56.4585 17.3145 55.5703 18.2026 54.3086 18.2026C53.0552 18.2026 52.167 17.3145 52.167 16.0278V8.32471H48.7305V16.0195ZM65.9466 11.3794L60.659 21H71.2093V17.937H66.3202L71.5829 8.32471H61.6551V11.3794H65.9466Z" fill="white"/>
</svg>
